<svg width="168" height="172" viewBox="0 0 168 172" fill="none" xmlns="http://www.w3.org/2000/svg">
<g id="Vector">
<path d="M155.205 43.7047C124.779 35.8698 89.0698 45.9695 59.5308 67.3501C43.332 79.075 29.5147 94.8713 20.1294 113.129C15.7993 121.68 12.919 130.82 12.255 139.741C11.6741 146.461 11.9421 155.967 17.3476 159.361C23.3123 163.107 15.9163 174.885 10.0966 170.909C-4.67006 161.314 -0.606738 134.563 6.12719 117.217C14.8295 94.6663 31.4851 75.178 49.7555 60.5679C82.4848 34.1063 125.196 21.9627 159.743 31.0977C166.681 32.8785 162.143 45.4855 155.205 43.7047Z" fill="white"/>
<path d="M132.344 2.30074C143.528 12.2212 154.897 22.2588 166.081 32.1793C169.56 35.33 165.831 41.6826 161.895 43.3975C144.869 51.0604 128.173 58.6094 111.147 66.2723C103.607 69.588 102.304 57.1774 109.657 53.7446C126.684 46.0817 143.379 38.5327 160.406 30.8698C159.121 34.5712 157.65 38.1556 156.365 41.857C145.182 31.9365 133.812 21.899 122.629 11.9785C120.496 9.99506 121.656 5.24965 123.956 2.82942C126.876 -0.166611 129.88 0.431177 132.344 2.30074Z" fill="white"/>
</g>
</svg>
